PathFileType	4	(X/Y/Z)	E:\Qualisys_Data\Carbon_Farble_Plate\Data\Amateur_Runner\S1\T2\S1T2V13_c3d.trc
DataRate	CameraRate	NumFrames	NumMarkers	Units	OrigDataRate	OrigDataStartFrame	OrigNumFrames
200.000000	200.000000	5	39	mm	200.000000	191	307
Frame#	Time	LSHO			RSHO			LICST			RICST			LASIS			LHEEL			RASIS			LTROC			RTROC			SACR			LTH1			LSK4			LTH2			LTH3			RHM5			LSK2			LTH4			RTH1			LTOE			RTH2			RTH3			RTH4			LLEP			RLEP			LSK1			LSK3			RSK1			LHM5			RSK2			LFT1			RSK3			RSK4			LLME			RLME			RTOE			RHEEL			RFT1			RFT2			LFT2			
		X1	Y1	Z1	X2	Y2	Z2	X3	Y3	Z3	X4	Y4	Z4	X5	Y5	Z5	X6	Y6	Z6	X7	Y7	Z7	X8	Y8	Z8	X9	Y9	Z9	X10	Y10	Z10	X11	Y11	Z11	X12	Y12	Z12	X13	Y13	Z13	X14	Y14	Z14	X15	Y15	Z15	X16	Y16	Z16	X17	Y17	Z17	X18	Y18	Z18	X19	Y19	Z19	X20	Y20	Z20	X21	Y21	Z21	X22	Y22	Z22	X23	Y23	Z23	X24	Y24	Z24	X25	Y25	Z25	X26	Y26	Z26	X27	Y27	Z27	X28	Y28	Z28	X29	Y29	Z29	X30	Y30	Z30	X31	Y31	Z31	X32	Y32	Z32	X33	Y33	Z33	X34	Y34	Z34	X35	Y35	Z35	X36	Y36	Z36	X37	Y37	Z37	X38	Y38	Z38	X39	Y39	Z39	

192	0.955	950.501708984375	1494.898681640625	-533.3837280273438	973.27294921875	1458.609252929688	-205.6158905029297	908.13232421875	1014.181640625	-513.6897583007812	913.803466796875	1035.920654296875	-213.6896514892578	950.7852172851562	975.7196655273438	-486.3469543457031	699.97119140625	326.7142028808594	-415.357666015625	949.9298095703124	985.2107543945312	-221.0990905761719	857.0975341796875	890.57421875	-532.0745239257812	830.0952758789062	905.7938232421876	-196.68701171875	792.7898559570312	1044.49169921875	-360.5081787109375	1037.31298828125	803.7716064453125	-500.5567626953125	828.3720092773438	419.4297180175781	-447.6889343261719	970.7305908203124	758.979248046875	-532.3643798828125	1088.847534179688	713.7450561523438	-491.5426330566406	719.1290283203125	53.07666397094727	-221.0364532470703	910.2402954101562	473.0685424804688	-482.3063659667969	1017.3564453125	671.2630615234375	-513.582763671875	942.7105712890624	761.43701171875	-214.2035064697266	861.8640747070312	131.2625274658203	-409.3815307617188	867.5353393554688	769.1646728515625	-186.3894500732422	928.0499267578124	661.031005859375	-223.7035675048828	849.7958984375	672.45947265625	-203.0756988525391	1101.152465820312	551.0948486328125	-478.1943969726562	848.0650024414062	499.6708374023438	-245.1916198730469	955.8765258789062	401.0348815917969	-476.9616088867188	866.780517578125	352.5263977050781	-471.91259765625	760.16796875	329.7190856933594	-230.2369537353516	794.4085693359375	156.1029357910156	-477.526123046875	688.2105712890625	369.7906494140625	-233.4361267089844	683.5201416015625	301.6452026367188	-389.8572692871094	712.8825073242188	241.5667572021484	-241.2457580566406	642.9900512695312	282.0735778808594	-255.8357391357422	755.6923828125	304.4378356933594	-465.2733154296875	619.3899536132812	148.3131103515625	-238.0032348632812	780.8927001953125	52.95674133300781	-299.9794311523438	539.7391967773438	128.4606781005859	-276.7370910644531	544.0635375976562	95.94871520996094	-307.1885375976562	536.1450805664062	100.4225387573242	-249.6801452636719	679.370849609375	300.3209228515625	-443.072998046875
193	0.96	963.9734497070312	1499.271118164062	-534.3685913085938	991.4415283203124	1463.4208984375	-207.3071136474609	926.1356201171876	1019.002563476562	-514.32080078125	931.6349487304688	1039.203491210938	-214.6140899658203	968.4324340820312	980.393798828125	-486.5136108398438	728.8729858398438	316.4195251464844	-415.5085754394531	967.3099975585938	988.1015014648438	-221.9886627197266	876.26318359375	895.6585083007812	-533.2470092773438	847.082275390625	909.6834716796876	-197.5953521728516	810.4578247070312	1048.765991210938	-361.7230224609375	1056.419555664062	809.8533325195312	-499.9950561523438	853.7164306640625	414.3897094726562	-447.8606872558594	990.5795288085938	764.887451171875	-533.25146484375	1108.677001953125	720.4834594726562	-491.1518249511719	720.31787109375	53.81971740722656	-221.6429595947266	933.2372436523438	471.7214050292969	-482.1904907226562	1037.670532226562	677.5128784179688	-514.1823120117188	955.981201171875	763.8624877929688	-216.0279693603516	900.0201416015625	128.7242279052734	-409.7515563964844	881.3414916992188	773.7369995117188	-187.0336151123047	939.0625	663.86962890625	-225.1089782714844	860.9242553710938	676.5220336914062	-204.4540557861328	1121.62451171875	557.1912841796875	-477.9098510742188	855.1458740234375	504.5215759277344	-246.073486328125	980.812744140625	402.2601013183594	-477.1271057128906	894.8634033203125	349.0066528320312	-471.5850219726562	765.1198120117188	335.1256713867188	-230.4158630371094	831.5108032226562	150.3036041259766	-477.7693786621094	693.9934692382812	375.36572265625	-234.6092224121094	712.6377563476562	290.8783874511719	-390.7551879882812	717.8482055664062	247.0432891845703	-241.3569183349609	648.0538330078125	288.2818298339844	-256.2781982421875	785.638427734375	297.1915893554688	-465.39794921875	623.8875732421875	154.1996459960938	-238.0885467529297	781.9317016601562	52.64466857910156	-300.2893676757812	544.2188110351562	134.8257293701172	-276.5024719238281	547.3491821289062	102.4739685058594	-307.2147521972656	539.9964599609375	107.2097473144531	-250.1586303710938	709.7085571289062	288.8750610351562	-442.9474792480469
194	0.965	977.3695068359376	1503.125	-535.3352661132812	1009.609619140625	1468.445556640625	-208.7923583984375	944.1314697265624	1023.973815917969	-514.8886108398438	949.5999755859376	1042.146728515625	-215.3226623535156	986.1779174804688	984.6171264648438	-487.3236999511719	755.3988037109375	304.69921875	-416.7986450195312	985.0475463867188	991.064453125	-222.60009765625	895.1600952148438	900.6676025390625	-534.9278564453125	863.61279296875	913.59521484375	-198.7790374755859	828.4299926757812	1052.374389648438	-362.4849853515625	1075.332397460938	815.98388671875	-499.66455078125	879.0726318359375	409.2095947265625	-447.7056884765625	1010.497253417969	770.6603393554688	-533.6438598632812	1128.251953125	727.1265869140625	-490.4976501464844	720.7468872070312	54.19401168823242	-222.8550720214844	956.1453247070312	469.5641174316406	-481.7790222167969	1058.227905273438	683.813720703125	-514.6683349609375	969.788818359375	766.3772583007812	-216.8854827880859	938.1295166015624	126.4188690185547	-410.0689086914062	895.27099609375	777.6424560546875	-188.1515808105469	950.3438110351562	667.2329711914062	-226.8413696289062	872.6483154296875	681.7890014648438	-205.6063385009766	1141.856079101562	563.1008911132812	-477.6217041015625	863.1913452148438	509.4525146484375	-246.7017059326172	1006.460144042969	402.5590209960938	-476.7014465332031	923.0676879882812	345.9542846679688	-471.6628723144531	771.2731323242188	340.7187805175781	-230.4769439697266	868.9031982421875	145.0793304443359	-477.8106384277344	700.2974243164062	381.7603759765625	-234.4968109130859	748.6113891601562	280.1905822753906	-387.488525390625	722.8985595703125	253.3705749511719	-241.1466827392578	653.8954467773438	294.9450073242188	-256.6361389160156	816.4412231445312	289.1665954589844	-464.8851928710938	628.7862548828125	159.7371520996094	-238.1030120849609	782.7606811523438	52.09993743896484	-300.3590087890625	548.9286499023438	141.7777709960938	-276.5904235839844	550.7916870117188	109.0578231811523	-309.2680053710938	544.0006103515625	113.7195434570312	-250.5865325927734	740.15625	277.6773071289062	-442.9991149902344
195	0.97	991.0696411132812	1507.084838867188	-536.4760131835938	1027.426635742188	1473.486694335938	-210.3900909423828	961.49560546875	1028.808227539062	-516.1616821289062	967.8153076171876	1045.294555664062	-216.1121063232422	1004.028198242188	989.3533935546876	-487.7535705566406	785.4521484375	294.048583984375	-416.5822448730469	1003.284301757812	993.8677978515624	-223.7501220703125	913.6829833984376	905.6337280273438	-536.224853515625	880.8475341796875	917.7960815429688	-199.8432006835938	846.4034423828125	1056.799072265625	-363.0732727050781	1094.446655273438	822.1552124023438	-499.3023071289062	904.4928588867188	404.28466796875	-447.8721618652344	1030.155639648438	776.2865600585938	-534.197021484375	1147.614379882812	733.1939086914062	-487.8452453613281	722.4332885742188	55.49994659423828	-222.4622192382812	979.145263671875	467.4514770507812	-482.0767822265625	1078.256591796875	689.4281616210938	-514.7879028320312	983.5718383789062	769.1118774414062	-218.2034149169922	976.3817749023438	124.3999633789062	-410.3310546875	909.2261962890624	781.9765625	-189.4158477783203	962.1934814453124	670.6173095703125	-228.2277069091797	884.8955078125	686.0800170898438	-206.7355194091797	1161.439575195312	568.3212280273438	-477.1525268554688	871.189697265625	514.4534301757812	-247.3008117675781	1032.2373046875	402.5263366699219	-476.3449096679688	951.439208984375	342.2155151367188	-471.2074584960938	777.713134765625	346.9073486328125	-230.6036834716797	906.1119384765624	139.8995971679688	-478.5054321289062	706.7019653320312	387.8391723632812	-235.0801239013672	779.2865600585938	269.2874145507812	-387.5118713378906	729.0352783203125	259.4727783203125	-240.8120269775391	660.133056640625	300.8964233398438	-256.912109375	846.9078369140625	281.2000732421875	-465.12158203125	633.7852783203125	165.4321746826172	-238.2261352539062	784.29150390625	52.16693878173828	-300.0793151855469	552.8351440429688	147.9412536621094	-277.0810546875	555.0486450195312	115.3495254516602	-309.0263671875	547.8302001953125	120.2162094116211	-250.9170989990234	770.9003295898438	266.6240234375	-444.1831359863281
196	0.975	1005.517395019531	1510.966186523438	-537.2374877929688	1045.52880859375	1478.386352539062	-211.9649963378906	980.1134643554688	1034.126342773438	-515.8733520507812	986.1965942382812	1048.484985351562	-217.0444641113281	1021.709106445312	993.5675659179688	-487.7054138183594	816.10595703125	283.3319091796875	-416.5618286132812	1020.923767089844	996.8794555664062	-225.1602325439453	932.0820922851562	910.6567993164062	-537.7723388671875	897.7996215820312	922.042724609375	-200.8298645019531	864.3881225585938	1061.065307617188	-364.0771789550781	1113.128540039062	828.09765625	-498.3567810058594	929.882080078125	398.2842102050781	-447.9018859863281	1049.525634765625	782.172119140625	-534.8740844726562	1166.7666015625	739.1490478515625	-487.3622436523438	723.9488525390625	56.58361053466797	-222.4849700927734	1002.029296875	464.8999328613281	-482.3655395507812	1098.1259765625	695.38623046875	-515.0502319335938	997.4296264648438	771.9437866210938	-219.0456237792969	1014.2314453125	122.4273452758789	-410.9239807128906	923.7913818359376	786.5969848632812	-190.1856079101562	974.187255859375	673.990966796875	-229.1750335693359	897.0455932617188	691.28857421875	-207.7692718505859	1180.859619140625	574.0910034179688	-476.9923400878906	879.8226928710938	519.4432983398438	-248.4879455566406	1057.984619140625	402.7025756835938	-476.8697204589844	980.4174194335938	338.3217163085938	-471.4107055664062	784.7100830078125	352.98779296875	-230.3141937255859	943.5540161132812	135.1947784423828	-478.655517578125	713.8593139648438	394.3574829101562	-235.3106689453125	810.5198974609375	257.9456176757812	-387.6668395996094	735.6350708007812	265.8847961425781	-239.929931640625	666.9440307617188	307.8025817871094	-256.7590942382812	877.956787109375	273.2982177734375	-465.0729370117188	639.8430786132812	170.8655242919922	-237.6021881103516	785.5897216796875	51.81529235839844	-299.74267578125	557.7869873046875	154.6334838867188	-277.6167907714844	557.09326171875	121.0241165161133	-308.3654174804688	552.1776733398438	127.1722640991211	-251.3894653320312	803.4957275390625	255.1247406005859	-443.3729248046875
